<?xml version="1.0" encoding="UTF-8"?>
<svg xmlns="http://www.w3.org/2000/svg" xmlns:xlink="http://www.w3.org/1999/xlink" viewBox="0 0 268 360">
  <defs>
    <style>
      .cls-1 {
        clip-path: url(#clippath);
      }

      .cls-2 {
        fill: none;
      }

      .cls-2, .cls-3, .cls-4, .cls-5, .cls-6, .cls-7, .cls-8, .cls-9, .cls-10, .cls-11, .cls-12, .cls-13, .cls-14 {
        stroke-width: 0px;
      }

      .cls-3 {
        fill: #e5605a;
        opacity: .4;
      }

      .cls-3, .cls-8, .cls-9, .cls-13 {
        mix-blend-mode: multiply;
      }

      .cls-4 {
        fill: #ed7070;
      }

      .cls-5, .cls-8 {
        fill: #564a46;
      }

      .cls-6, .cls-9 {
        fill: #f5d69e;
      }

      .cls-7, .cls-13 {
        fill: #9ff4ed;
      }

      .cls-8 {
        opacity: .29;
      }

      .cls-9 {
        opacity: .58;
      }

      .cls-10 {
        fill: #cea86b;
      }

      .cls-15 {
        opacity: .28;
      }

      .cls-11 {
        fill: #f962b1;
      }

      .cls-12 {
        fill: #5fe0d0;
      }

      .cls-16 {
        isolation: isolate;
      }

      .cls-13 {
        opacity: .59;
      }

      .cls-14 {
        fill: #fff;
      }
    </style>
    <clipPath id="clippath">
      <path class="cls-2" d="M124.35,232.23l-31.06-92.12h71.68l-31.06,92.12c-1.54,4.58-8.02,4.58-9.56,0Z"/>
    </clipPath>
  </defs>
  <g class="cls-16">
    <g id="Layer_1" data-name="Layer 1">
      <g>
        <path class="cls-8" d="M134.22,353.5c-59.44,0-108.15-48.5-108.15-108.12V116.11C26.07,56.5,74.78,8,134.22,8s108.15,48.5,108.15,108.12v129.27c0,59.62-48.71,108.12-108.15,108.12Z"/>
        <path class="cls-14" d="M132.26,352c-59.44,0-107.36-48.5-107.36-108.12V114.62C24.9,55,72.82,6.5,132.26,6.5s107.36,48.5,107.36,108.12v129.27c0,59.62-47.92,108.12-107.36,108.12Z"/>
        <path class="cls-11" d="M132.26,346.15c-56.17,0-101.88-45.88-101.88-102.27V114.62c0-56.39,45.7-102.27,101.88-102.27s101.88,45.88,101.88,102.27v129.27c0,56.39-45.7,102.27-101.88,102.27ZM132.26,18.62c-52.72,0-95.61,43.06-95.61,96v129.27c0,52.93,42.89,96,95.61,96s95.61-43.06,95.61-96V114.62c0-52.93-42.89-96-95.61-96Z"/>
        <g>
          <path class="cls-11" d="M64.13,100.03l-8.54-2.29c-.45-.12-.7-.56-.58-1.01.12-.45.56-.72,1.01-.6l3.47.93,1-3.75-3.47-.93c-.45-.12-.7-.56-.58-1.01.12-.45.56-.72,1.01-.6l8.54,2.29c.45.12.7.57.58,1.02-.12.45-.56.7-1.01.58l-3.47-.93-1,3.75,3.47.93c.45.12.7.57.58,1.02-.12.45-.56.7-1.01.58Z"/>
          <path class="cls-11" d="M68.8,85.87l-7.9-3.95c-.41-.21-.58-.69-.37-1.11h0s0-.01.01-.04l2.17-4.34c.19-.39.69-.58,1.11-.37.41.21.58.72.38,1.11l-1.81,3.63,2.45,1.23,1.56-3.12c.2-.4.72-.56,1.1-.37.42.21.58.71.38,1.11l-1.56,3.12,2.46,1.23,1.82-3.63c.19-.39.7-.57,1.12-.36.4.2.56.72.37,1.11l-2.17,4.34s-.03.02-.03.02v.02c-.2.41-.7.57-1.1.37Z"/>
          <path class="cls-11" d="M77.27,69.14l-2.23,2.88,1.09,1.77c.18.31.14.68-.06.94-.06.08-.13.15-.21.2-.4.24-.9.12-1.16-.27l-4.96-8.02c-.18-.31-.14-.7.07-.95.2-.28.56-.4.9-.31l9.01,2.77c.44.15.69.61.55,1.05-.02.08-.08.17-.14.25-.2.26-.55.39-.88.28l-1.99-.61ZM75.59,68.62l-3.29-1.01,1.81,2.93,1.48-1.92Z"/>
          <path class="cls-11" d="M84.46,63.78l-5.84-6.62c-.3-.34-.28-.85.07-1.16.35-.31.88-.27,1.17.06l5.29,5.99,3.04-2.68c.33-.29.86-.26,1.17.08.3.34.25.87-.07,1.16l-3.63,3.21-.02.02h-.01c-.35.32-.86.27-1.16-.06Z"/>
          <path class="cls-11" d="M94.54,46.45l-2.03,1.25,4.19,6.81c.24.39.13.89-.27,1.13-.38.24-.89.13-1.13-.27l-4.19-6.81-2.01,1.24c-.39.24-.9.1-1.14-.28-.24-.39-.13-.89.27-1.13l5.44-3.35c.38-.24.89-.13,1.13.27.24.38.12.91-.26,1.14Z"/>
          <path class="cls-11" d="M105.55,49.9l-2.98-8.31c-.16-.44.06-.9.5-1.05.44-.16.91.06,1.07.49l1.21,3.38,3.65-1.31-1.21-3.38c-.16-.44.06-.9.5-1.05.44-.16.91.06,1.07.49l2.98,8.31c.16.44-.07.9-.51,1.06-.44.16-.9-.06-1.05-.5l-1.21-3.38-3.65,1.31,1.21,3.38c.16.44-.07.9-.51,1.06-.44.16-.9-.06-1.05-.5Z"/>
          <path class="cls-11" d="M125.2,36.57l-2.42,4.61.59,4c.07.46-.23.87-.69.94-.43.06-.87-.23-.94-.69l-.59-4-3.62-3.71c-.33-.31-.34-.83,0-1.15s.84-.32,1.15.01l3.05,3.09,2.02-3.84c.23-.41.72-.56,1.11-.35.39.21.54.71.34,1.1Z"/>
          <path class="cls-11" d="M149.47,41.85c-.09.56-.46,1.07-.9,1.29-.08.02-.13.04-.18.06,0,.12-.03.24-.05.36-.37,1.96-2.25,3.23-4.2,2.87-1.96-.37-3.24-2.23-2.87-4.19.19-1.03.81-1.87,1.63-2.37-.19-.48-.24-.99-.14-1.52.28-1.51,1.75-2.5,3.25-2.22,1.52.28,2.51,1.73,2.23,3.25-.09.46-.5.74-.96.66-.44-.08-.76-.51-.67-.96.11-.62-.28-1.19-.9-1.31-.6-.11-1.19.28-1.31.9-.07.38.06.74.3.99.29.33.31.8.02,1.13h-.02s-.02.02-.03.05c-.06.05-.12.08-.19.13-.02.01-.04.02-.05.02t-.05.02s-.05.02-.08.03c-.69.19-1.26.77-1.39,1.52-.2,1.06.48,2.05,1.54,2.25,1.06.2,2.07-.48,2.27-1.54,0-.01.01-.06.02-.09-.77-.13-1.08,0-1.17.07-.12.08-.15.17-.18.3-.02.09-.01.15-.02.16.04.45-.28.86-.75.91-.06,0-.15,0-.23-.01-.37-.07-.64-.35-.67-.73-.02-.05-.04-.3.03-.63.06-.38.29-1,.88-1.37.59-.39,1.41-.51,2.44-.32.16.03.32.06.48.11.02,0,.04,0,.06.01.06.01.1.02.16.02t.05-.02s0-.02.02-.1c0-.04.02-.12.03-.22-.04-.46.32-.84.78-.86.46-.02.85.34.86.8.02.2,0,.4-.03.59Z"/>
          <path class="cls-11" d="M164.21,52.25l4.39-7.66c.22-.39.72-.54,1.12-.31h.01s0,0,.03.02l4.21,2.41c.38.22.53.73.3,1.12-.23.4-.75.53-1.13.32l-3.52-2.02-1.36,2.38,3.03,1.73c.39.22.52.75.3,1.12-.23.4-.74.54-1.13.32l-3.03-1.73-1.79,3.12c-.22.39-.73.53-1.14.3-.4-.23-.53-.73-.3-1.12Z"/>
          <path class="cls-11" d="M180.98,63.74c-.17.43-.66.62-1.08.45-.06-.03-.17-.08-.28-.18h-.01c-.11-.11-.26-.28-.33-.52-.07-.22-.07-.47-.02-.71.13-.47.4-.94.94-1.56.18-.22.26-.41.29-.6.04-.18,0-.41-.06-.62-.1-.36-.32-.71-.4-.82l-1.33-1.16-2.13,2.45c-.29.34-.82.38-1.17.07-.35-.3-.38-.82-.08-1.16l5.79-6.67c.3-.35.81-.39,1.16-.08h.01s2.01,1.75,2.01,1.75c1.35,1.17,1.48,3.18.31,4.53-.65.75-1.56,1.11-2.49,1.09.05.24.07.49.03.76-.06.52-.27,1.07-.69,1.55-.31.33-.46.57-.53.71.13.21.16.48.06.73ZM183.34,57.82c.57-.66.5-1.63-.15-2.19l-1.39-1.21-2.02,2.33,1.39,1.21c.64.56,1.62.49,2.17-.14Z"/>
          <path class="cls-11" d="M185.3,68.99l6.94-5.46c.37-.29.87-.23,1.16.14h0s0,.01.02.04l3,3.81c.27.34.23.87-.14,1.16-.37.29-.9.21-1.17-.13l-2.51-3.19-2.15,1.69,2.16,2.74c.28.35.2.89-.14,1.16-.36.29-.89.22-1.17-.13l-2.16-2.74-2.17,1.7,2.51,3.19c.27.34.21.88-.15,1.17-.35.28-.89.2-1.16-.14l-3-3.81s0-.03,0-.03h-.02c-.29-.37-.21-.88.14-1.16Z"/>
          <path class="cls-11" d="M194.37,78.65c.42.09.68.51.59.93-.18.83-.23,2.13.27,3.07.34.67.84,1.17,1.34,1.42.5.25.92.25,1.25.08.17-.09.27-.19.37-.34.09-.15.17-.34.2-.6.06-.52-.05-1.29-.3-2.15v-.03c-.21-.69-.35-1.36-.37-1.99-.02-.63.09-1.24.41-1.77.22-.36.54-.66.94-.86.8-.41,1.73-.31,2.49.08.77.4,1.44,1.08,1.88,1.95.65,1.28.51,2.55.41,3.45-.06.42-.44.73-.85.67-.42-.04-.73-.42-.68-.85.11-.91.17-1.77-.24-2.58-.31-.6-.77-1.04-1.22-1.26-.45-.22-.82-.22-1.1-.08-.16.08-.25.16-.33.28-.07.12-.13.3-.16.54-.06.47.03,1.18.26,1.97v.03c.23.75.37,1.46.39,2.13.01.68-.09,1.34-.43,1.9-.22.36-.56.69-.97.9-.85.43-1.83.33-2.65-.09-.81-.41-1.54-1.13-2.02-2.08-.72-1.45-.62-3.03-.4-4.1.09-.42.51-.68.92-.6Z"/>
          <path class="cls-11" d="M198.74,92.78l8.54-2.29c.45-.12.89.13,1.01.58.12.45-.13.9-.58,1.02l-3.47.93,1,3.75,3.47-.93c.45-.12.89.13,1.01.58.12.45-.13.9-.58,1.02l-8.54,2.29c-.45.12-.89-.15-1.01-.6-.12-.45.13-.89.58-1.01l3.47-.93-1-3.75-3.47.93c-.45.12-.89-.15-1.01-.6-.12-.45.13-.89.58-1.01Z"/>
        </g>
        <g>
          <path class="cls-11" d="M57.12,250.98l7.86-1.17c.41-.06.78.21.84.62.06.41-.21.79-.62.85l-3.2.48.51,3.45,3.2-.48c.41-.06.78.21.84.62.06.41-.21.79-.62.86l-7.86,1.17c-.41.06-.78-.22-.84-.64-.06-.41.21-.78.62-.84l3.2-.48-.51-3.45-3.2.48c-.41.06-.78-.22-.84-.64-.06-.41.21-.78.62-.84Z"/>
          <path class="cls-11" d="M69.43,269.32c-.55,1.09-1.49,1.98-2.75,2.44-1.25.45-2.56.36-3.67-.12-1.09-.45-2.03-1.37-2.45-2.54-.44-1.22-.31-2.52.24-3.59.54-1.08,1.5-1.96,2.76-2.41,1.26-.45,2.54-.38,3.66.1,1.11.47,2.04,1.4,2.47,2.62.42,1.17.3,2.47-.26,3.52ZM66.16,270.31c.86-.31,1.54-.94,1.91-1.66.38-.74.45-1.57.18-2.33-.29-.81-.88-1.4-1.64-1.73-.75-.33-1.67-.37-2.53-.06-.86.31-1.54.93-1.89,1.66-.38.74-.46,1.57-.17,2.38.27.76.87,1.35,1.63,1.67.73.32,1.65.38,2.52.07Z"/>
          <path class="cls-11" d="M77.2,282.55l-6.73,4.23c-.34.22-.81.1-1.03-.24-.22-.35-.11-.81.23-1.02l4.8-3.02-3.32-.21c-.25-.02-.46-.14-.58-.35h0s0-.02,0-.02c-.13-.21-.16-.46-.07-.69l1.26-3.07-4.8,3.02c-.34.22-.81.11-1.03-.24-.21-.34-.11-.81.23-1.02l6.73-4.23c.34-.22.81-.11,1.02.23t.02.03c.11.18.15.45.05.67l-1.72,4.25,4.58.29c.25.02.46.14.58.35h0c.2.36.12.83-.22,1.04Z"/>
          <path class="cls-11" d="M74.76,292.26l5.88-5.33c.31-.28.77-.26,1.05.05h0s0,.01.02.03l2.93,3.23c.26.29.26.77-.05,1.05-.31.28-.79.25-1.06-.04l-2.45-2.7-1.83,1.65,2.11,2.32c.27.3.24.78-.05,1.05-.31.28-.79.26-1.06-.04l-2.11-2.32-1.84,1.66,2.45,2.7c.26.29.25.77-.06,1.05-.3.27-.78.24-1.05-.05l-2.93-3.23s0-.03,0-.03h-.02c-.28-.31-.25-.78.05-1.05Z"/>
          <path class="cls-11" d="M94.99,299.86l-4.77,6.35c-.24.32-.73.38-1.05.14-.33-.25-.39-.71-.15-1.04l3.4-4.53-3.17.99c-.24.07-.48.03-.67-.12h-.01s-.01-.02-.01-.02c-.19-.15-.31-.37-.31-.62l.08-3.31-3.4,4.53c-.24.32-.71.39-1.05.14-.32-.24-.39-.71-.15-1.04l4.77-6.35c.24-.32.71-.39,1.04-.15t.03.02c.17.13.3.36.29.6l-.09,4.58,4.37-1.36c.24-.07.48-.03.67.12h.01c.32.26.4.73.16,1.05Z"/>
          <path class="cls-11" d="M101.14,310.62l-2.93-1.46-1.37,1.27c-.24.21-.57.24-.84.11-.08-.04-.15-.09-.21-.15-.28-.31-.26-.78.04-1.07l6.21-5.77c.24-.21.59-.25.85-.1.28.13.45.42.43.74l-.89,8.43c-.06.41-.42.71-.83.67-.07,0-.16-.04-.25-.08-.26-.13-.44-.42-.4-.73l.19-1.86ZM101.31,309.05l.32-3.08-2.27,2.1,1.95.98Z"/>
          <path class="cls-11" d="M108.33,315.17l2.2-7.65c.11-.4.52-.62.92-.51l1.53.44c2.5.72,3.94,3.34,3.22,5.83-.72,2.51-3.33,3.97-5.83,3.25l-1.53-.44c-.4-.12-.62-.53-.51-.92ZM109.98,314.85l.8.23c1.72.48,3.49-.5,3.98-2.22.49-1.7-.49-3.48-2.2-3.97l-.8-.23-1.78,6.2Z"/>
          <path class="cls-11" d="M121.05,318.22l.92-7.9c.05-.42.41-.7.82-.65h.01s0,0,.03,0l4.34.5c.39.05.7.41.65.82-.05.42-.44.71-.82.67l-3.63-.42-.28,2.45,3.12.36c.4.05.7.43.65.82-.05.42-.42.71-.82.66l-3.12-.36-.29,2.46,3.63.42c.39.05.7.42.65.83-.05.4-.43.7-.82.65l-4.34-.5s-.03-.02-.03-.02h-.02c-.41-.04-.7-.41-.65-.81Z"/>
          <path class="cls-11" d="M142.62,310.31c-.07-.41.2-.78.61-.85.4-.07.8.2.86.61l1.27,7.85c.07.41-.23.79-.63.85-.41.07-.78-.2-.85-.61l-1.27-7.85Z"/>
          <path class="cls-11" d="M149.72,312.92c-.79-2.55.69-5.29,3.26-6.11,1.13-.36,2.27-.31,3.28.07.39.16.58.59.45.99-.16.4-.62.6-.98.47-.71-.28-1.49-.31-2.29-.06-.89.28-1.59.9-2.02,1.65-.39.77-.51,1.66-.23,2.53.28.87.89,1.56,1.64,1.94.78.38,1.72.48,2.6.2.8-.25,1.41-.71,1.84-1.36.23-.31.72-.41,1.07-.18.33.25.43.73.19,1.07-.61.88-1.52,1.58-2.65,1.94-2.57.81-5.35-.59-6.17-3.14Z"/>
          <path class="cls-11" d="M165.4,311.47l-3.72-7.03c-.2-.37-.06-.81.31-1h.01s0,0,.02-.02l3.86-2.05c.35-.18.81-.06,1,.31.2.37.04.83-.3,1.01l-3.23,1.71,1.16,2.18,2.77-1.47c.36-.19.82-.04,1,.31.2.37.06.83-.3,1.01l-2.77,1.47,1.16,2.19,3.23-1.71c.34-.18.81-.05,1.01.32.19.36.04.82-.31,1l-3.86,2.04s-.03,0-.03,0v.02c-.37.2-.82.05-1.01-.31Z"/>
          <path class="cls-11" d="M173.28,302.16c-1.64-2.1-1.23-5.19.87-6.87.93-.73,2.02-1.1,3.09-1.1.42.01.75.35.77.76,0,.43-.36.78-.75.78-.77-.01-1.51.24-2.16.76-.73.58-1.17,1.41-1.3,2.26-.09.86.11,1.73.68,2.45.57.72,1.38,1.14,2.22,1.23.86.07,1.78-.17,2.5-.74.66-.52,1.07-1.17,1.24-1.93.1-.37.53-.64.94-.55.4.11.66.53.56.93-.26,1.04-.86,2.02-1.79,2.75-2.11,1.67-5.21,1.35-6.88-.74Z"/>
          <path class="cls-11" d="M191.24,290.29c.38.16.56.59.4.98-.03.05-.08.15-.17.25h0c-.09.11-.24.25-.46.31-.2.06-.43.06-.64.01-.42-.11-.84-.36-1.4-.85-.2-.16-.37-.23-.54-.26-.17-.04-.37,0-.56.05-.33.09-.64.28-.74.36l-1.05,1.2,2.2,1.93c.3.27.34.74.06,1.06-.28.31-.74.34-1.05.07l-5.98-5.23c-.32-.28-.35-.73-.07-1.05h0s1.58-1.82,1.58-1.82c1.06-1.21,2.87-1.32,4.08-.26.67.59.99,1.4.97,2.25.22-.04.45-.06.69-.03.47.05.96.25,1.39.62.3.28.51.41.63.48.19-.12.43-.14.66-.05ZM185.92,288.15c-.59-.51-1.46-.46-1.97.12l-1.09,1.25,2.09,1.83,1.09-1.25c.5-.58.45-1.45-.12-1.95Z"/>
          <path class="cls-11" d="M195.16,285.5l-6.74-4.2c-.36-.22-.46-.67-.24-1.02h0s0-.01.01-.03l2.31-3.7c.21-.33.67-.46,1.02-.24.35.22.45.7.25,1.03l-1.93,3.1,2.09,1.3,1.66-2.66c.21-.34.69-.44,1.02-.24.35.22.46.68.25,1.03l-1.66,2.66,2.1,1.31,1.93-3.1c.21-.33.68-.45,1.03-.23.34.21.44.69.24,1.02l-2.31,3.7s-.02.02-.02.02v.02c-.22.35-.67.45-1.02.24Z"/>
          <path class="cls-11" d="M201.55,270.01l-1.26,3.02,1.36,1.28c.23.23.28.55.17.83-.04.09-.08.16-.14.22-.29.3-.76.31-1.07.04l-6.18-5.79c-.23-.23-.29-.57-.16-.84.11-.29.39-.48.71-.48l8.47.29c.41.03.74.36.72.78,0,.07-.02.16-.06.25-.11.27-.38.47-.7.45l-1.87-.06ZM199.97,269.95l-3.09-.1,2.25,2.12.84-2.01Z"/>
          <path class="cls-11" d="M199.52,252.59l7.8,1.54c.4.08.66.49.58.88-.08.41-.47.66-.87.58l-5.57-1.1,2.27,2.43c.17.18.23.42.19.66h0s0,.03,0,.03c-.05.24-.2.44-.42.55l-3.02,1.37,5.57,1.1c.4.08.66.47.58.88-.08.4-.47.66-.87.58l-7.8-1.54c-.4-.08-.66-.47-.58-.87t0-.04c.04-.21.2-.43.42-.52l4.17-1.91-3.13-3.35c-.17-.18-.23-.42-.19-.66h0c.09-.41.48-.69.87-.61Z"/>
        </g>
        <circle class="cls-7" cx="128.84" cy="126.48" r="38.26"/>
        <path class="cls-13" d="M128.06,88.21c-2.56,0-5.06.26-7.49.74,17.55,3.48,30.78,18.96,30.78,37.53s-13.23,34.04-30.78,37.53c2.42.48,4.92.74,7.49.74,21.13,0,38.26-17.13,38.26-38.26s-17.13-38.26-38.26-38.26Z"/>
        <path class="cls-5" d="M128.84,167.87c-22.83,0-41.4-18.57-41.4-41.4s18.57-41.4,41.4-41.4,41.4,18.57,41.4,41.4-18.57,41.4-41.4,41.4ZM128.84,91.35c-19.37,0-35.13,15.76-35.13,35.13s15.76,35.13,35.13,35.13,35.13-15.76,35.13-35.13-15.76-35.13-35.13-35.13Z"/>
        <path class="cls-14" d="M109.01,105.37c-.44,0-.87-.18-1.18-.54-.57-.65-.5-1.64.15-2.21.81-.71,1.66-1.38,2.54-2.01.71-.5,1.69-.34,2.18.37.5.71.34,1.68-.37,2.19-.79.56-1.56,1.17-2.29,1.81-.3.26-.66.39-1.03.39Z"/>
        <path class="cls-14" d="M100.73,117.19c-.19,0-.38-.03-.56-.11-.81-.31-1.21-1.22-.9-2.03,1.18-3.07,2.84-5.93,4.92-8.5.54-.67,1.53-.78,2.2-.23.67.54.78,1.53.23,2.2-1.87,2.32-3.36,4.89-4.43,7.66-.24.62-.83,1-1.46,1Z"/>
        <path class="cls-6" d="M124.44,232.49l-31.15-92.37h71.68l-31.15,92.37c-1.52,4.5-7.87,4.5-9.39,0Z"/>
        <g class="cls-1">
          <g>
            <g>
              <rect class="cls-10" x="-5.18" y="160.68" width="208.6" height=".78" transform="translate(-85.03 204.15) rotate(-71.56)"/>
              <g class="cls-15">
                <rect class="cls-14" x="-4.19" y="161.01" width="208.6" height=".78" transform="translate(-84.66 205.34) rotate(-71.57)"/>
              </g>
            </g>
            <g>
              <rect class="cls-10" x="4.75" y="163.99" width="208.6" height=".78" transform="translate(-81.38 215.85) rotate(-71.56)"/>
              <g class="cls-15">
                <rect class="cls-14" x="5.74" y="164.32" width="208.6" height=".78" transform="translate(-81.02 217.02) rotate(-71.57)"/>
              </g>
            </g>
            <g>
              <rect class="cls-10" x="14.67" y="167.31" width="208.6" height=".78" transform="translate(-77.74 227.53) rotate(-71.56)"/>
              <g class="cls-15">
                <rect class="cls-14" x="15.66" y="167.64" width="208.6" height=".78" transform="translate(-77.38 228.7) rotate(-71.57)"/>
              </g>
            </g>
            <g>
              <rect class="cls-10" x="24.6" y="170.62" width="208.6" height=".78" transform="translate(-74.1 239.22) rotate(-71.56)"/>
              <g class="cls-15">
                <rect class="cls-14" x="25.59" y="170.95" width="208.6" height=".78" transform="translate(-73.73 240.39) rotate(-71.57)"/>
              </g>
            </g>
            <g>
              <rect class="cls-10" x="34.52" y="173.93" width="208.6" height=".78" transform="translate(-70.46 250.9) rotate(-71.56)"/>
              <g class="cls-15">
                <rect class="cls-14" x="35.52" y="174.26" width="208.6" height=".78" transform="translate(-70.09 252.07) rotate(-71.57)"/>
              </g>
            </g>
            <g>
              <rect class="cls-10" x="44.45" y="177.25" width="208.6" height=".78" transform="translate(-66.81 262.58) rotate(-71.56)"/>
              <g class="cls-15">
                <rect class="cls-14" x="45.44" y="177.58" width="208.6" height=".78" transform="translate(-66.45 263.75) rotate(-71.57)"/>
              </g>
            </g>
          </g>
          <g>
            <g>
              <rect class="cls-10" x="159.28" y="63.4" width=".78" height="208.6" transform="translate(-44.89 59.2) rotate(-18.46)"/>
              <g class="cls-15">
                <rect class="cls-14" x="158.28" y="63.73" width=".78" height="208.6" transform="translate(-45.05 58.9) rotate(-18.46)"/>
              </g>
            </g>
            <g>
              <rect class="cls-10" x="149.35" y="66.71" width=".78" height="208.6" transform="translate(-46.45 56.23) rotate(-18.46)"/>
              <g class="cls-15">
                <rect class="cls-14" x="148.36" y="67.04" width=".78" height="208.6" transform="translate(-46.61 55.93) rotate(-18.46)"/>
              </g>
            </g>
            <g>
              <rect class="cls-10" x="139.43" y="70.02" width=".78" height="208.6" transform="translate(-48.01 53.25) rotate(-18.46)"/>
              <g class="cls-15">
                <rect class="cls-14" x="138.43" y="70.36" width=".78" height="208.6" transform="translate(-48.17 52.96) rotate(-18.46)"/>
              </g>
            </g>
            <g>
              <rect class="cls-10" x="129.5" y="73.34" width=".78" height="208.6" transform="translate(-49.57 50.28) rotate(-18.46)"/>
              <g class="cls-15">
                <rect class="cls-14" x="128.51" y="73.67" width=".78" height="208.6" transform="translate(-49.73 49.98) rotate(-18.46)"/>
              </g>
            </g>
            <g>
              <rect class="cls-10" x="119.57" y="76.65" width=".78" height="208.6" transform="translate(-51.13 47.31) rotate(-18.46)"/>
              <g class="cls-15">
                <rect class="cls-14" x="118.58" y="76.98" width=".78" height="208.6" transform="translate(-51.29 47.01) rotate(-18.46)"/>
              </g>
            </g>
            <g>
              <rect class="cls-10" x="109.65" y="79.97" width=".78" height="208.6" transform="translate(-52.69 44.33) rotate(-18.46)"/>
              <g class="cls-15">
                <rect class="cls-14" x="108.66" y="80.3" width=".78" height="208.6" transform="translate(-52.85 44.04) rotate(-18.46)"/>
              </g>
            </g>
          </g>
        </g>
        <path class="cls-9" d="M147.6,139.52l-21.07,95.4c2.49.92,5.63-.27,6.64-3.28l31.01-92.11h-16.59Z"/>
        <path class="cls-5" d="M88.14,136.38l31.97,96.69h0c1.57,3.41,4.43,5.6,8.02,5.6s6.76-2.49,7.91-5.9l32.51-96.4h-80.41ZM130.21,230.78c-.41,1.21-1.44,1.49-1.86,1.49s-1.45-.35-1.86-1.56l-29.61-88.05h62.95l-29.61,88.13Z"/>
        <g>
          <path class="cls-7" d="M123.54,137.1v5.59c0,2.71-2.21,4.92-4.92,4.92h0c-2.71,0-4.92-2.21-4.92-4.92v-5.59"/>
          <path class="cls-5" d="M118.62,150.75c-4.44,0-8.06-3.61-8.06-8.06v-5.59h6.27v5.59c0,.97.82,1.79,1.79,1.79s1.79-.82,1.79-1.79v-5.59h6.27v5.59c0,4.44-3.61,8.06-8.06,8.06Z"/>
        </g>
        <g>
          <path class="cls-7" d="M140.3,137.1v19.07c0,2.71-2.21,4.92-4.92,4.92h0c-2.71,0-4.92-2.21-4.92-4.92v-19.07"/>
          <path class="cls-5" d="M135.38,164.22c-4.44,0-8.06-3.61-8.06-8.06v-19.07h6.27v19.07c0,.97.82,1.79,1.79,1.79s1.79-.82,1.79-1.79v-19.07h6.27v19.07c0,4.44-3.61,8.06-8.06,8.06Z"/>
        </g>
        <g>
          <circle class="cls-4" cx="129.45" cy="82.82" r="10.1"/>
          <path class="cls-3" d="M128.66,72.73c-.82,0-1.61.11-2.38.29,4.43,1.07,7.72,5.05,7.72,9.81s-3.29,8.74-7.72,9.81c.76.18,1.56.29,2.38.29,5.58,0,10.1-4.52,10.1-10.1s-4.52-10.1-10.1-10.1Z"/>
          <path class="cls-5" d="M130.9,78.98h-.31c-1.28,0-2.3-1.09-2.21-2.36.71-10.08,5.96-17.08,13.39-18.41,1.36-.24,2.63.79,2.63,2.17v.33c0,1.08-.79,1.94-1.84,2.17-4.96,1.1-8.87,6.61-9.48,14.06-.09,1.14-1.04,2.03-2.19,2.03Z"/>
          <path class="cls-5" d="M129.45,96.06c-7.3,0-13.23-5.94-13.23-13.23s5.94-13.23,13.23-13.23,13.23,5.94,13.23,13.23-5.94,13.23-13.23,13.23ZM129.45,75.86c-3.84,0-6.96,3.12-6.96,6.96s3.12,6.96,6.96,6.96,6.96-3.12,6.96-6.96-3.12-6.96-6.96-6.96Z"/>
        </g>
        <circle class="cls-12" cx="130.75" cy="272.15" r="18.87"/>
        <g>
          <path class="cls-14" d="M120.62,268.89v-3.99c0-.21.16-.37.37-.37h2.21c.2,0,.37.16.37.37s-.18.38-.37.38h-1.83v1.24h1.58c.2,0,.37.18.37.37,0,.21-.17.38-.37.38h-1.58v1.25h1.83c.2,0,.37.17.37.38s-.18.37-.37.37h-2.19s-.01,0-.01,0h0c-.21,0-.37-.16-.37-.37Z"/>
          <path class="cls-14" d="M125.85,268.08c.12-.15.34-.17.49-.05.3.24.81.53,1.29.52.34,0,.64-.1.85-.25.2-.15.29-.32.29-.49,0-.09-.02-.15-.06-.22-.04-.07-.1-.14-.2-.2-.2-.13-.53-.24-.93-.32h-.01c-.32-.06-.62-.14-.87-.26-.26-.12-.48-.29-.63-.53-.1-.16-.16-.35-.16-.56,0-.41.23-.76.54-.99.32-.23.73-.36,1.17-.36.65,0,1.13.32,1.48.54.16.11.2.33.09.48-.1.16-.32.21-.48.1-.34-.23-.68-.43-1.09-.43-.3,0-.58.09-.76.23-.18.14-.26.28-.26.43,0,.08.01.14.05.19s.09.11.18.18c.18.12.48.23.85.3h.01c.34.07.66.16.93.28.28.13.52.31.68.56.1.16.16.37.16.57,0,.43-.24.81-.58,1.05-.33.24-.77.39-1.25.39-.73,0-1.35-.37-1.73-.68-.15-.12-.17-.35-.05-.49Z"/>
          <path class="cls-14" d="M134.66,265.27h-1.08v3.61c0,.21-.16.37-.37.37s-.37-.16-.37-.37v-3.61h-1.07c-.21,0-.37-.18-.37-.38s.16-.37.37-.37h2.89c.2,0,.37.16.37.37s-.17.38-.37.38Z"/>
          <path class="cls-14" d="M137.41,268.89v-3.99c0-.21.16-.37.37-.37h.8c1.31,0,2.36,1.06,2.36,2.36s-1.06,2.38-2.36,2.38h-.8c-.21,0-.37-.17-.37-.37ZM138.16,268.51h.42c.89,0,1.61-.72,1.61-1.62s-.72-1.61-1.61-1.61h-.42v3.23Z"/>
        </g>
        <g>
          <path class="cls-14" d="M123.89,280.18c0,.21-.16.37-.37.37h-2.41c-.1,0-.21-.04-.28-.12-.14-.16-.13-.39.02-.53l2-1.81c.2-.18.28-.41.28-.65,0-.22-.07-.42-.22-.59-.18-.2-.41-.28-.65-.28-.21,0-.42.07-.59.22l-.21.19c-.16.14-.39.13-.53-.03-.13-.16-.13-.39.03-.53l.21-.19c.3-.28.7-.42,1.09-.42.44,0,.89.18,1.2.53.28.3.42.7.42,1.09,0,.44-.18.89-.53,1.2l-1.28,1.16h1.44c.21,0,.37.17.37.38Z"/>
          <path class="cls-14" d="M126.73,278.18c0-.62.16-1.18.46-1.62.28-.43.72-.75,1.26-.75s.97.32,1.25.75c.29.43.45.99.45,1.62s-.16,1.18-.45,1.62c-.28.43-.73.75-1.25.75s-.98-.32-1.26-.75c-.3-.43-.45-1-.46-1.62ZM129.4,278.18c0-.49-.13-.91-.32-1.21-.2-.28-.42-.42-.63-.41-.21,0-.44.13-.64.41-.19.29-.33.72-.33,1.21s.14.91.33,1.2c.2.29.43.42.64.42s.43-.13.63-.42c.19-.28.32-.72.32-1.2Z"/>
          <path class="cls-14" d="M134.81,276.19v3.99c0,.21-.18.37-.38.37s-.37-.16-.37-.37v-3.33l-.27.16c-.06.04-.13.05-.19.05-.13,0-.25-.07-.32-.19-.11-.17-.06-.41.12-.51l.83-.49s.02,0,.03-.01c.01,0,.02-.01.03-.02.01,0,.03,0,.04,0,0,0,.02,0,.03,0,.01,0,.03,0,.05,0h.08s.02,0,.03,0c.02,0,.03,0,.04.01,0,0,.02,0,.03,0,.02.01.03.02.04.02,0,0,.01.01.03.02,0,0,.02.01.03.02.01,0,.02.02.03.03,0,0,.01.01.02.03,0,0,.02.02.03.03h0s0,.03,0,.03c0,.01.01.02.01.03,0,.01,0,.03.01.03,0,.01,0,.03,0,.03,0,.02,0,.03.01.05v.02Z"/>
          <path class="cls-14" d="M140.6,276.33l-1.69,4c-.05.14-.19.22-.35.22-.04,0-.09,0-.14-.03-.19-.09-.28-.3-.2-.49l1.46-3.47h-1.75c-.2,0-.37-.18-.37-.38s.17-.37.37-.37h2.32s.04,0,.07,0c.05,0,.09.03.14.05,0,0,.01.01.02.02.01,0,.02.01.03.03,0,.01.02.02.03.03,0,.01.01.02.02.03,0,0,.01.03.01.03,0,.01.01.02.03.03,0,0,0,.03,0,.03,0,.01,0,.02.01.03,0,.05,0,.1,0,.15,0,.03-.01.05-.02.07Z"/>
        </g>
        <g>
          <path class="cls-14" d="M47.63,144.88c2.31,0,4.49.32,6.53.96,2.04.64,3.87,1.52,5.48,2.65,1.61,1.13,2.98,2.47,4.11,4.02,1.13,1.55,1.96,3.21,2.51,4.98.67,2.38.56,4.33-.32,5.85-.88,1.52-2.07,2.56-3.56,3.11-1.49.55-3.06.53-4.7-.05-1.65-.58-2.86-1.78-3.65-3.61-.79-1.58-1.71-2.83-2.74-3.74-1.04-.91-2.25-1.43-3.65-1.55-.55-.06-1.2.02-1.96.23-.76.21-1.49.55-2.19,1-.7.46-1.31,1.07-1.83,1.83-.52.76-.78,1.63-.78,2.6,0,1.71.59,3.52,1.78,5.43,1.19,1.92,2.66,3.82,4.43,5.71l1.1,1.19c1.4,1.58,2.8,3.2,4.2,4.84,1.4,1.64,2.68,3.38,3.84,5.21,1.16,1.83,2.08,3.78,2.79,5.85.7,2.07,1.05,4.29,1.05,6.67,0,3.53-.76,6.85-2.28,9.95-1.52,3.11-3.58,5.82-6.17,8.13-2.59,2.31-5.56,4.14-8.9,5.48-3.35,1.34-6.85,2.01-10.5,2.01s-6.8-.56-10-1.69c-3.2-1.13-6-2.74-8.4-4.84-2.41-2.1-4.32-4.61-5.76-7.54-1.43-2.92-2.09-6.21-1.96-9.86,0-1.7.38-3.15,1.14-4.34.76-1.19,1.71-2.07,2.83-2.65,1.13-.58,2.34-.85,3.65-.82,1.31.03,2.5.38,3.56,1.05,1.07.67,1.9,1.66,2.51,2.97.61,1.31.82,2.94.64,4.89,0,1.65.29,3.11.87,4.39.58,1.28,1.4,2.36,2.47,3.24,1.06.88,2.31,1.57,3.74,2.06,1.43.49,2.97.73,4.61.73,1.46,0,2.94-.27,4.43-.82,1.49-.55,2.83-1.32,4.02-2.33,1.19-1,2.15-2.25,2.88-3.74.73-1.49,1.1-3.15,1.1-4.98,0-2.74-.82-5.3-2.47-7.67-1.64-2.37-3.59-4.81-5.85-7.31-1.28-1.46-2.56-2.95-3.84-4.48-1.28-1.52-2.42-3.09-3.43-4.7-1-1.61-1.83-3.29-2.47-5.02s-.96-3.61-.96-5.62c0-.85.08-1.72.23-2.6.15-.88.38-1.78.68-2.7.73-2.31,1.83-4.35,3.29-6.12,1.46-1.76,3.14-3.26,5.02-4.48,1.89-1.22,3.94-2.15,6.17-2.79,2.22-.64,4.46-.96,6.71-.96Z"/>
          <path class="cls-14" d="M108.64,196.39c.55-1.64,1.54-2.74,2.97-3.29,1.43-.55,2.82-.64,4.16-.27s2.44,1.11,3.29,2.24c.85,1.13.97,2.51.37,4.16-1.46,4.14-3.35,7.73-5.66,10.78-2.31,3.05-4.92,5.57-7.81,7.58-2.89,2.01-5.98,3.5-9.27,4.48-3.29.97-6.61,1.46-9.96,1.46s-6.41-.46-9.18-1.37c-2.77-.91-5.15-2.16-7.12-3.74-1.98-1.58-3.52-3.49-4.61-5.71-1.1-2.22-1.64-4.64-1.64-7.26,0-2.07.37-4.2,1.1-6.39l5.21-15.34c.79-2.37,1.87-4.44,3.24-6.21,1.37-1.76,2.89-3.21,4.57-4.34,1.67-1.13,3.47-1.96,5.39-2.51,1.92-.55,3.85-.82,5.8-.82,2.49,0,4.76.55,6.8,1.64,2.04,1.1,3.68,2.59,4.93,4.48s2.01,4.05,2.28,6.49-.08,5.02-1.05,7.76c-1.04,2.68-2.45,4.4-4.25,5.16-1.8.76-3.47.87-5.02.32-1.55-.55-2.72-1.57-3.52-3.06-.79-1.49-.73-3.15.18-4.98.85-1.58,1.16-2.95.91-4.11-.24-1.16-1.07-1.8-2.47-1.92-.79-.06-1.58.23-2.37.87-.79.64-1.4,1.54-1.83,2.7v-.09l-5.66,15.89c-.37,1.22-.55,2.31-.55,3.29,0,2.31.93,4.26,2.79,5.85,1.86,1.58,4.37,2.37,7.53,2.37,1.71,0,3.52-.29,5.44-.87,1.92-.58,3.79-1.51,5.62-2.79,1.83-1.28,3.56-2.94,5.21-4.98,1.64-2.04,3.04-4.52,4.2-7.44Z"/>
          <path class="cls-14" d="M143.9,204.34c.18.06.39.09.64.09h.64c2.74,0,5.1-.88,7.08-2.65,1.98-1.77,3.48-4.08,4.52-6.94.61-2.01,1.64-3.38,3.11-4.11,1.46-.73,2.88-.93,4.25-.59,1.37.34,2.45,1.19,3.24,2.56.79,1.37.82,3.15.09,5.34-.79,2.38-1.89,4.61-3.29,6.71-1.4,2.1-3.08,3.93-5.02,5.48-1.95,1.55-4.11,2.79-6.49,3.7-2.37.91-4.9,1.37-7.58,1.37-1.89,0-3.71-.24-5.48-.73-1.95,3.29-4.44,5.66-7.49,7.12-3.04,1.46-6.36,2.19-9.96,2.19-2.31,0-4.54-.35-6.67-1.05-2.13-.7-4.02-1.71-5.66-3.01-1.65-1.31-2.95-2.92-3.93-4.84-.97-1.92-1.46-4.06-1.46-6.44,0-1.03.11-2.1.32-3.2.21-1.1.5-2.22.87-3.38l7.4-20.37c.73-2.01,1.76-3.82,3.11-5.44,1.34-1.61,2.88-2.97,4.61-4.06,1.74-1.1,3.62-1.93,5.66-2.51,2.04-.58,4.12-.87,6.26-.87,2.44,0,4.76.37,6.99,1.1,2.22.73,4.14,1.78,5.75,3.15,1.61,1.37,2.86,3.01,3.75,4.93.88,1.92,1.23,4.03,1.05,6.35-.06.91-.27,2.1-.64,3.56-.36,1.46-.79,2.94-1.28,4.43-.49,1.49-1,2.89-1.55,4.2-.55,1.31-1.01,2.24-1.37,2.79-.61.91-1.22,1.58-1.83,2.01.18.85.29,1.6.32,2.24.03.64.05.93.05.87ZM135.4,190.27c.3-.97.67-2.11,1.1-3.42.43-1.31.64-2.39.64-3.24,0-1.03-.43-1.96-1.28-2.79-.85-.82-1.98-1.23-3.38-1.23s-2.69.41-3.88,1.23-2.02,2-2.51,3.52c-2.01,4.75-3.62,8.75-4.84,12.01-1.22,3.26-2.16,5.92-2.83,7.99-.18.55-.38,1.29-.59,2.24-.21.94-.26,1.9-.14,2.88.12.98.49,1.81,1.1,2.51.61.7,1.67,1.05,3.2,1.05,1.34,0,2.62-.44,3.84-1.32,1.22-.88,2.13-2.12,2.74-3.7,0-.06.03-.12.09-.18-.85-.73-1.61-1.55-2.28-2.47-.67-.91-1.04-2.16-1.1-3.75,0-1.34.26-2.6.78-3.79.52-1.19,1.22-2.19,2.1-3.01.88-.82,1.89-1.43,3.01-1.83,1.13-.4,2.33-.53,3.61-.41.06-.37.15-.73.27-1.1.12-.37.24-.76.36-1.19Z"/>
          <path class="cls-14" d="M191.57,204.34c.18.06.39.09.64.09h.64c2.74,0,5.1-.88,7.08-2.65,1.98-1.77,3.48-4.08,4.52-6.94.61-2.01,1.64-3.38,3.11-4.11,1.46-.73,2.88-.93,4.25-.59,1.37.34,2.45,1.19,3.24,2.56.79,1.37.82,3.15.09,5.34-.79,2.38-1.89,4.61-3.29,6.71-1.4,2.1-3.08,3.93-5.02,5.48-1.95,1.55-4.11,2.79-6.49,3.7-2.37.91-4.9,1.37-7.58,1.37-1.89,0-3.71-.24-5.48-.73-1.95,3.29-4.44,5.66-7.49,7.12-3.04,1.46-6.36,2.19-9.95,2.19-2.31,0-4.54-.35-6.67-1.05-2.13-.7-4.02-1.71-5.66-3.01-1.65-1.31-2.95-2.92-3.93-4.84-.97-1.92-1.46-4.06-1.46-6.44,0-1.03.11-2.1.32-3.2.21-1.1.5-2.22.87-3.38l7.4-20.37c.73-2.01,1.76-3.82,3.11-5.44,1.34-1.61,2.88-2.97,4.61-4.06,1.74-1.1,3.62-1.93,5.66-2.51,2.04-.58,4.12-.87,6.26-.87,2.44,0,4.76.37,6.99,1.1,2.22.73,4.14,1.78,5.75,3.15,1.61,1.37,2.86,3.01,3.75,4.93.88,1.92,1.23,4.03,1.05,6.35-.06.91-.27,2.1-.64,3.56-.36,1.46-.79,2.94-1.28,4.43-.49,1.49-1,2.89-1.55,4.2-.55,1.31-1.01,2.24-1.37,2.79-.61.91-1.22,1.58-1.83,2.01.18.85.29,1.6.32,2.24.03.64.05.93.05.87ZM183.08,190.27c.3-.97.67-2.11,1.1-3.42.43-1.31.64-2.39.64-3.24,0-1.03-.43-1.96-1.28-2.79-.85-.82-1.98-1.23-3.38-1.23s-2.69.41-3.88,1.23-2.02,2-2.51,3.52c-2.01,4.75-3.62,8.75-4.84,12.01-1.22,3.26-2.16,5.92-2.83,7.99-.18.55-.38,1.29-.59,2.24-.21.94-.26,1.9-.14,2.88.12.98.49,1.81,1.1,2.51.61.7,1.67,1.05,3.2,1.05,1.34,0,2.62-.44,3.84-1.32,1.22-.88,2.13-2.12,2.74-3.7,0-.06.03-.12.09-.18-.85-.73-1.61-1.55-2.28-2.47-.67-.91-1.04-2.16-1.1-3.75,0-1.34.26-2.6.78-3.79.52-1.19,1.22-2.19,2.1-3.01.88-.82,1.89-1.43,3.01-1.83,1.13-.4,2.33-.53,3.61-.41.06-.37.15-.73.27-1.1.12-.37.24-.76.36-1.19Z"/>
          <path class="cls-14" d="M250.39,197.12c.42-1.34,1.06-2.4,1.92-3.2.85-.79,1.75-1.32,2.69-1.6.94-.27,1.9-.3,2.88-.09.97.21,1.81.61,2.51,1.19.7.58,1.17,1.36,1.41,2.33.24.97.15,2.1-.27,3.38-1.52,4.32-3.47,8.05-5.85,11.19-2.37,3.14-5.13,5.71-8.27,7.72-3.14,2.01-6.62,3.5-10.46,4.48-3.84.97-7.98,1.46-12.42,1.46-1.1,0-2.24-.03-3.43-.09-1.19-.06-2.36-.15-3.52-.27-1.83,0-3.47-.27-4.93-.82-1.46-.55-2.8-1.28-4.02-2.19-.55,1.52-1.13,3.18-1.74,4.98-.61,1.8-1.23,3.64-1.87,5.53-.64,1.89-1.28,3.73-1.92,5.53-.64,1.8-1.23,3.45-1.78,4.98-.43,1.34-1.13,2.4-2.1,3.2-.97.79-2.04,1.32-3.2,1.6-1.16.27-2.31.27-3.47,0-1.16-.27-2.15-.78-2.97-1.51-.82-.73-1.37-1.69-1.64-2.88-.27-1.19-.11-2.6.5-4.25l22.74-64.3c.36-1.34.96-2.42,1.78-3.24s1.74-1.4,2.74-1.74c1-.33,2.05-.49,3.15-.46,1.1.03,2.07.23,2.92.59.85.37,1.55.84,2.1,1.42.55.58.79,1.2.73,1.87,1.03-.85,2.22-1.4,3.56-1.64,1.34-.24,2.62-.36,3.84-.36,1.76,0,3.45.36,5.07,1.1,1.61.73,3.03,1.71,4.25,2.92,1.22,1.22,2.18,2.66,2.88,4.34.7,1.67,1.05,3.42,1.05,5.25,0,1.64-.27,3.23-.82,4.75-1.28,3.53-2.57,7.14-3.88,10.82-1.31,3.68-2.6,7.26-3.88,10.73-.12.3-.23.58-.32.82-.09.24-.26.61-.5,1.1,3.17-1.16,6.01-2.94,8.54-5.34,2.53-2.4,4.52-5.49,5.98-9.27ZM214.04,205.34c-.61,1.95-.49,3.43.36,4.43.85,1,2.01,1.51,3.47,1.51,1.22-.06,2.39-.47,3.52-1.23,1.13-.76,1.93-1.84,2.42-3.24.61-1.77,1.17-3.35,1.69-4.75.52-1.4,1.01-2.77,1.46-4.11.46-1.34.93-2.71,1.42-4.11.49-1.4,1-3.01,1.55-4.84.61-1.76.64-3.24.09-4.43-.55-1.19-1.52-1.84-2.92-1.96-1.28-.06-2.56.34-3.84,1.19-1.28.85-2.31,2.07-3.1,3.65l.18-.09-6.3,17.99Z"/>
        </g>
        <g>
          <path class="cls-11" d="M47.63,137.04c2.31,0,4.49.32,6.53.96,2.04.64,3.87,1.52,5.48,2.65,1.61,1.13,2.98,2.47,4.11,4.02,1.13,1.55,1.96,3.21,2.51,4.98.67,2.38.56,4.33-.32,5.85-.88,1.52-2.07,2.56-3.56,3.11-1.49.55-3.06.53-4.7-.05-1.65-.58-2.86-1.78-3.65-3.61-.79-1.58-1.71-2.83-2.74-3.74-1.04-.91-2.25-1.43-3.65-1.55-.55-.06-1.2.02-1.96.23-.76.21-1.49.55-2.19,1-.7.46-1.31,1.07-1.83,1.83-.52.76-.78,1.63-.78,2.6,0,1.71.59,3.52,1.78,5.43,1.19,1.92,2.66,3.82,4.43,5.71l1.1,1.19c1.4,1.58,2.8,3.2,4.2,4.84,1.4,1.64,2.68,3.38,3.84,5.21,1.16,1.83,2.08,3.78,2.79,5.85.7,2.07,1.05,4.29,1.05,6.67,0,3.53-.76,6.85-2.28,9.95-1.52,3.11-3.58,5.82-6.17,8.13-2.59,2.31-5.56,4.14-8.9,5.48-3.35,1.34-6.85,2.01-10.5,2.01s-6.8-.56-10-1.69c-3.2-1.13-6-2.74-8.4-4.84-2.41-2.1-4.32-4.61-5.76-7.54-1.43-2.92-2.09-6.21-1.96-9.86,0-1.7.38-3.15,1.14-4.34.76-1.19,1.71-2.07,2.83-2.65,1.13-.58,2.34-.85,3.65-.82,1.31.03,2.5.38,3.56,1.05,1.07.67,1.9,1.66,2.51,2.97.61,1.31.82,2.94.64,4.89,0,1.65.29,3.11.87,4.39.58,1.28,1.4,2.36,2.47,3.24,1.06.88,2.31,1.57,3.74,2.06,1.43.49,2.97.73,4.61.73,1.46,0,2.94-.27,4.43-.82,1.49-.55,2.83-1.32,4.02-2.33,1.19-1,2.15-2.25,2.88-3.74.73-1.49,1.1-3.15,1.1-4.98,0-2.74-.82-5.3-2.47-7.67-1.64-2.37-3.59-4.81-5.85-7.31-1.28-1.46-2.56-2.95-3.84-4.48-1.28-1.52-2.42-3.09-3.43-4.7-1-1.61-1.83-3.29-2.47-5.02s-.96-3.61-.96-5.62c0-.85.08-1.72.23-2.6.15-.88.38-1.78.68-2.7.73-2.31,1.83-4.35,3.29-6.12,1.46-1.76,3.14-3.26,5.02-4.48,1.89-1.22,3.94-2.15,6.17-2.79,2.22-.64,4.46-.96,6.71-.96Z"/>
          <path class="cls-11" d="M108.64,188.55c.55-1.64,1.54-2.74,2.97-3.29,1.43-.55,2.82-.64,4.16-.27s2.44,1.11,3.29,2.24c.85,1.13.97,2.51.37,4.16-1.46,4.14-3.35,7.73-5.66,10.78-2.31,3.05-4.92,5.57-7.81,7.58-2.89,2.01-5.98,3.5-9.27,4.48-3.29.97-6.61,1.46-9.96,1.46s-6.41-.46-9.18-1.37c-2.77-.91-5.15-2.16-7.12-3.74-1.98-1.58-3.52-3.49-4.61-5.71-1.1-2.22-1.64-4.64-1.64-7.26,0-2.07.37-4.2,1.1-6.39l5.21-15.34c.79-2.37,1.87-4.44,3.24-6.21,1.37-1.76,2.89-3.21,4.57-4.34,1.67-1.13,3.47-1.96,5.39-2.51,1.92-.55,3.85-.82,5.8-.82,2.49,0,4.76.55,6.8,1.64,2.04,1.1,3.68,2.59,4.93,4.48s2.01,4.05,2.28,6.49-.08,5.02-1.05,7.76c-1.04,2.68-2.45,4.4-4.25,5.16-1.8.76-3.47.87-5.02.32-1.55-.55-2.72-1.57-3.52-3.06-.79-1.49-.73-3.15.18-4.98.85-1.58,1.16-2.95.91-4.11-.24-1.16-1.07-1.8-2.47-1.92-.79-.06-1.58.23-2.37.87-.79.64-1.4,1.54-1.83,2.7v-.09l-5.66,15.89c-.37,1.22-.55,2.31-.55,3.29,0,2.31.93,4.26,2.79,5.85,1.86,1.58,4.37,2.37,7.53,2.37,1.71,0,3.52-.29,5.44-.87,1.92-.58,3.79-1.51,5.62-2.79,1.83-1.28,3.56-2.94,5.21-4.98,1.64-2.04,3.04-4.52,4.2-7.44Z"/>
          <path class="cls-11" d="M143.9,196.5c.18.06.39.09.64.09h.64c2.74,0,5.1-.88,7.08-2.65,1.98-1.77,3.48-4.08,4.52-6.94.61-2.01,1.64-3.38,3.11-4.11,1.46-.73,2.88-.93,4.25-.59,1.37.34,2.45,1.19,3.24,2.56.79,1.37.82,3.15.09,5.34-.79,2.38-1.89,4.61-3.29,6.71-1.4,2.1-3.08,3.93-5.02,5.48-1.95,1.55-4.11,2.79-6.49,3.7-2.37.91-4.9,1.37-7.58,1.37-1.89,0-3.71-.24-5.48-.73-1.95,3.29-4.44,5.66-7.49,7.12-3.04,1.46-6.36,2.19-9.96,2.19-2.31,0-4.54-.35-6.67-1.05-2.13-.7-4.02-1.71-5.66-3.01-1.65-1.31-2.95-2.92-3.93-4.84-.97-1.92-1.46-4.06-1.46-6.44,0-1.03.11-2.1.32-3.2.21-1.1.5-2.22.87-3.38l7.4-20.37c.73-2.01,1.76-3.82,3.11-5.44,1.34-1.61,2.88-2.97,4.61-4.06,1.74-1.1,3.62-1.93,5.66-2.51,2.04-.58,4.12-.87,6.26-.87,2.44,0,4.76.37,6.99,1.1,2.22.73,4.14,1.78,5.75,3.15,1.61,1.37,2.86,3.01,3.75,4.93.88,1.92,1.23,4.03,1.05,6.35-.06.91-.27,2.1-.64,3.56-.36,1.46-.79,2.94-1.28,4.43-.49,1.49-1,2.89-1.55,4.2-.55,1.31-1.01,2.24-1.37,2.79-.61.91-1.22,1.58-1.83,2.01.18.85.29,1.6.32,2.24.03.64.05.93.05.87ZM135.4,182.43c.3-.97.67-2.11,1.1-3.42.43-1.31.64-2.39.64-3.24,0-1.03-.43-1.96-1.28-2.79-.85-.82-1.98-1.23-3.38-1.23s-2.69.41-3.88,1.23-2.02,2-2.51,3.52c-2.01,4.75-3.62,8.75-4.84,12.01-1.22,3.26-2.16,5.92-2.83,7.99-.18.55-.38,1.29-.59,2.24-.21.94-.26,1.9-.14,2.88.12.98.49,1.81,1.1,2.51.61.7,1.67,1.05,3.2,1.05,1.34,0,2.62-.44,3.84-1.32,1.22-.88,2.13-2.12,2.74-3.7,0-.06.03-.12.09-.18-.85-.73-1.61-1.55-2.28-2.47-.67-.91-1.04-2.16-1.1-3.75,0-1.34.26-2.6.78-3.79.52-1.19,1.22-2.19,2.1-3.01.88-.82,1.89-1.43,3.01-1.83,1.13-.4,2.33-.53,3.61-.41.06-.37.15-.73.27-1.1.12-.37.24-.76.36-1.19Z"/>
          <path class="cls-11" d="M191.57,196.5c.18.06.39.09.64.09h.64c2.74,0,5.1-.88,7.08-2.65,1.98-1.77,3.48-4.08,4.52-6.94.61-2.01,1.64-3.38,3.11-4.11,1.46-.73,2.88-.93,4.25-.59,1.37.34,2.45,1.19,3.24,2.56.79,1.37.82,3.15.09,5.34-.79,2.38-1.89,4.61-3.29,6.71-1.4,2.1-3.08,3.93-5.02,5.48-1.95,1.55-4.11,2.79-6.49,3.7-2.37.91-4.9,1.37-7.58,1.37-1.89,0-3.71-.24-5.48-.73-1.95,3.29-4.44,5.66-7.49,7.12-3.04,1.46-6.36,2.19-9.95,2.19-2.31,0-4.54-.35-6.67-1.05-2.13-.7-4.02-1.71-5.66-3.01-1.65-1.31-2.95-2.92-3.93-4.84-.97-1.92-1.46-4.06-1.46-6.44,0-1.03.11-2.1.32-3.2.21-1.1.5-2.22.87-3.38l7.4-20.37c.73-2.01,1.76-3.82,3.11-5.44,1.34-1.61,2.88-2.97,4.61-4.06,1.74-1.1,3.62-1.93,5.66-2.51,2.04-.58,4.12-.87,6.26-.87,2.44,0,4.76.37,6.99,1.1,2.22.73,4.14,1.78,5.75,3.15,1.61,1.37,2.86,3.01,3.75,4.93.88,1.92,1.23,4.03,1.05,6.35-.06.91-.27,2.1-.64,3.56-.36,1.46-.79,2.94-1.28,4.43-.49,1.49-1,2.89-1.55,4.2-.55,1.31-1.01,2.24-1.37,2.79-.61.91-1.22,1.58-1.83,2.01.18.85.29,1.6.32,2.24.03.64.05.93.05.87ZM183.08,182.43c.3-.97.67-2.11,1.1-3.42.43-1.31.64-2.39.64-3.24,0-1.03-.43-1.96-1.28-2.79-.85-.82-1.98-1.23-3.38-1.23s-2.69.41-3.88,1.23-2.02,2-2.51,3.52c-2.01,4.75-3.62,8.75-4.84,12.01-1.22,3.26-2.16,5.92-2.83,7.99-.18.55-.38,1.29-.59,2.24-.21.94-.26,1.9-.14,2.88.12.98.49,1.81,1.1,2.51.61.7,1.67,1.05,3.2,1.05,1.34,0,2.62-.44,3.84-1.32,1.22-.88,2.13-2.12,2.74-3.7,0-.06.03-.12.09-.18-.85-.73-1.61-1.55-2.28-2.47-.67-.91-1.04-2.16-1.1-3.75,0-1.34.26-2.6.78-3.79.52-1.19,1.22-2.19,2.1-3.01.88-.82,1.89-1.43,3.01-1.83,1.13-.4,2.33-.53,3.61-.41.06-.37.15-.73.27-1.1.12-.37.24-.76.36-1.19Z"/>
          <path class="cls-11" d="M250.39,189.28c.42-1.34,1.06-2.4,1.92-3.2.85-.79,1.75-1.32,2.69-1.6.94-.27,1.9-.3,2.88-.09.97.21,1.81.61,2.51,1.19.7.58,1.17,1.36,1.41,2.33.24.97.15,2.1-.27,3.38-1.52,4.32-3.47,8.05-5.85,11.19-2.37,3.14-5.13,5.71-8.27,7.72-3.14,2.01-6.62,3.5-10.46,4.48-3.84.97-7.98,1.46-12.42,1.46-1.1,0-2.24-.03-3.43-.09-1.19-.06-2.36-.15-3.52-.27-1.83,0-3.47-.27-4.93-.82-1.46-.55-2.8-1.28-4.02-2.19-.55,1.52-1.13,3.18-1.74,4.98-.61,1.8-1.23,3.64-1.87,5.53-.64,1.89-1.28,3.73-1.92,5.53-.64,1.8-1.23,3.45-1.78,4.98-.43,1.34-1.13,2.4-2.1,3.2-.97.79-2.04,1.32-3.2,1.6-1.16.27-2.31.27-3.47,0-1.16-.27-2.15-.78-2.97-1.51-.82-.73-1.37-1.69-1.64-2.88-.27-1.19-.11-2.6.5-4.25l22.74-64.3c.36-1.34.96-2.42,1.78-3.24s1.74-1.4,2.74-1.74c1-.33,2.05-.49,3.15-.46,1.1.03,2.07.23,2.92.59.85.37,1.55.84,2.1,1.42.55.58.79,1.2.73,1.87,1.03-.85,2.22-1.4,3.56-1.64,1.34-.24,2.62-.36,3.84-.36,1.76,0,3.45.36,5.07,1.1,1.61.73,3.03,1.71,4.25,2.92,1.22,1.22,2.18,2.66,2.88,4.34.7,1.67,1.05,3.42,1.05,5.25,0,1.64-.27,3.23-.82,4.75-1.28,3.53-2.57,7.14-3.88,10.82-1.31,3.68-2.6,7.26-3.88,10.73-.12.3-.23.58-.32.82-.09.24-.26.61-.5,1.1,3.17-1.16,6.01-2.94,8.54-5.34,2.53-2.4,4.52-5.49,5.98-9.27ZM214.04,197.5c-.61,1.95-.49,3.43.36,4.43.85,1,2.01,1.51,3.47,1.51,1.22-.06,2.39-.47,3.52-1.23,1.13-.76,1.93-1.84,2.42-3.24.61-1.77,1.17-3.35,1.69-4.75.52-1.4,1.01-2.77,1.46-4.11.46-1.34.93-2.71,1.42-4.11.49-1.4,1-3.01,1.55-4.84.61-1.76.64-3.24.09-4.43-.55-1.19-1.52-1.84-2.92-1.96-1.28-.06-2.56.34-3.84,1.19-1.28.85-2.31,2.07-3.1,3.65l.18-.09-6.3,17.99Z"/>
        </g>
        <path class="cls-14" d="M62.05,153.95c-.38,0-.72-.28-.77-.68-.6-4.3-2.55-7.48-5.79-9.45-.37-.22-.49-.71-.26-1.08.22-.37.71-.49,1.08-.26,3.61,2.2,5.87,5.85,6.53,10.57.06.43-.24.82-.67.88-.04,0-.07,0-.11,0Z"/>
        <path class="cls-14" d="M52.28,142.39c-.07,0-.14,0-.21-.03-1.5-.41-2.59-.45-2.6-.45-.43-.01-.77-.37-.76-.81.01-.43.37-.78.8-.76.05,0,1.28.04,2.98.51.42.12.66.55.54.96-.09.35-.41.57-.75.57Z"/>
        <g>
          <path class="cls-14" d="M91.9,166.36c-.07,0-.14,0-.2-.03-.79-.21-1.57-.37-2.32-.47-.43-.06-.73-.45-.68-.88.06-.43.46-.74.88-.68.82.11,1.68.28,2.53.51.42.11.67.54.55.96-.09.35-.41.58-.76.58Z"/>
          <path class="cls-14" d="M77.53,170.93c-.13,0-.27-.03-.39-.1-.38-.22-.51-.69-.29-1.07.1-.17,2.4-4.11,7.7-5.27.43-.09.84.18.93.6.09.42-.17.84-.6.93-4.62,1.01-6.65,4.48-6.67,4.51-.15.25-.41.39-.68.39Z"/>
        </g>
        <g>
          <path class="cls-14" d="M182.81,166.36c-.07,0-.14,0-.2-.03-.79-.21-1.57-.37-2.32-.47-.43-.06-.73-.45-.68-.88.06-.43.45-.74.88-.68.82.11,1.68.28,2.53.51.42.11.67.54.55.96-.09.35-.41.58-.76.58Z"/>
          <path class="cls-14" d="M168.44,170.93c-.13,0-.27-.03-.39-.1-.38-.22-.51-.69-.29-1.07.1-.17,2.4-4.11,7.7-5.27.43-.09.84.18.93.6.09.42-.17.84-.6.93-4.62,1.01-6.65,4.48-6.67,4.51-.15.25-.41.39-.68.39Z"/>
        </g>
        <path class="cls-14" d="M135.53,165.05c-.05,0-.1,0-.16-.02-.93-.19-1.86-.31-2.75-.36-.43-.02-.76-.39-.74-.83.02-.43.36-.75.83-.74.97.05,1.97.19,2.97.39.42.09.7.5.61.92-.08.37-.4.63-.77.63Z"/>
        <path class="cls-14" d="M120.11,169.62c-.17,0-.34-.05-.48-.16-.34-.26-.41-.75-.14-1.1.12-.16,3.11-3.96,9.05-5.01.43-.08.83.21.91.63.08.43-.21.83-.63.91-5.32.95-8.06,4.4-8.09,4.43-.15.2-.39.3-.62.3Z"/>
        <path class="cls-14" d="M213.5,167.66s-.08,0-.11,0c-.43-.06-.72-.46-.66-.88.01-.08.31-2.05,2.07-3.33,1.34-.98,3.12-1.29,5.3-.93.43.07.71.48.64.9s-.47.72-.9.64c-1.73-.29-3.11-.08-4.09.63-1.23.89-1.46,2.29-1.46,2.31-.06.39-.39.67-.77.67Z"/>
        <path class="cls-14" d="M241.06,177.59c-.43,0-.78-.35-.78-.78,0-7.67-4.9-9.64-5.11-9.72-.4-.16-.61-.61-.45-1.01.15-.4.6-.61,1.01-.46.25.09,6.13,2.39,6.13,11.19,0,.43-.35.78-.78.78Z"/>
        <path class="cls-14" d="M252.29,190.65s-.07,0-.11,0c-.43-.06-.73-.45-.67-.88,0-.08.28-1.97,1.84-3.07,1.04-.73,2.36-.93,3.94-.6.42.09.69.51.6.93-.09.42-.51.69-.93.6-1.13-.24-2.04-.12-2.71.35-.99.7-1.18,1.98-1.19,1.99-.05.39-.39.68-.77.68Z"/>
        <path class="cls-14" d="M7.92,193.26c-.37,0-.7-.27-.77-.65-.02-.11-.45-2.64,1.21-4.62,1.21-1.45,3.17-2.18,5.83-2.18.43,0,.78.35.78.78s-.35.78-.78.78c-2.17,0-3.73.54-4.63,1.62-1.19,1.42-.87,3.32-.87,3.34.08.43-.21.83-.63.91-.05,0-.09.01-.14.01Z"/>
      </g>
    </g>
  </g>
</svg>